<svg width="120" height="54" viewBox="0 0 120 54" fill="none" xmlns="http://www.w3.org/2000/svg">
<path d="M0.959839 16.9377C0.959839 16.294 1.48166 15.7722 2.12536 15.7722H6.78742C7.43112 15.7722 7.95294 16.294 7.95294 16.9377V53.0688H0.959839V16.9377Z" fill="#008FFB"/>
<path d="M26.6012 16.9377C26.6012 16.294 27.123 15.7722 27.7667 15.7722H32.4288C33.0725 15.7722 33.5943 16.294 33.5943 16.9377V53.0688H26.6012V16.9377Z" fill="#008FFB"/>
<path d="M10.2839 1.78612C10.2839 1.14243 10.8058 0.620605 11.4495 0.620605H16.1115C16.7552 0.620605 17.277 1.14243 17.277 1.78612V53.0689H10.2839V1.78612Z" fill="#A8CBFE"/>
<path d="M35.9253 1.78612C35.9253 1.14243 36.4471 0.620605 37.0908 0.620605H41.7529C42.3966 0.620605 42.9184 1.14243 42.9184 1.78612V53.0689H35.9253V1.78612Z" fill="#A8CBFE"/>
<path d="M52.2426 16.9377C52.2426 16.294 52.7644 15.7722 53.4081 15.7722H58.0701C58.7138 15.7722 59.2357 16.294 59.2357 16.9377V53.0688H52.2426V16.9377Z" fill="#008FFB"/>
<path d="M61.5668 1.78612C61.5668 1.14243 62.0886 0.620605 62.7323 0.620605H67.3944C68.0381 0.620605 68.5599 1.14243 68.5599 1.78612V53.0689H61.5668V1.78612Z" fill="#A8CBFE"/>
<path d="M77.884 16.9377C77.884 16.294 78.4059 15.7722 79.0496 15.7722H83.7116C84.3553 15.7722 84.8771 16.294 84.8771 16.9377V53.0688H77.884V16.9377Z" fill="#008FFB"/>
<path d="M87.2081 1.78612C87.2081 1.14243 87.7299 0.620605 88.3736 0.620605H93.0357C93.6794 0.620605 94.2012 1.14243 94.2012 1.78612V53.0689H87.2081V1.78612Z" fill="#A8CBFE"/>
<path d="M103.525 16.9377C103.525 16.294 104.047 15.7722 104.691 15.7722H109.353C109.997 15.7722 110.518 16.294 110.518 16.9377V53.0688H103.525V16.9377Z" fill="#008FFB"/>
<path d="M112.849 1.78612C112.849 1.14243 113.371 0.620605 114.015 0.620605H118.677C119.321 0.620605 119.843 1.14243 119.843 1.78612V53.0689H112.849V1.78612Z" fill="#A8CBFE"/>
</svg>
