<svg width="52" height="105" viewBox="0 0 52 105" fill="none" xmlns="http://www.w3.org/2000/svg">
<g clip-path="url(#clip0_170_1334)">
<path d="M0.350586 0.425293C14.0031 0.425293 27.0965 5.89991 36.7503 15.6448C46.4041 25.3897 51.8276 38.6066 51.8276 52.3879C51.8276 66.1693 46.4041 79.3862 36.7503 89.1311C27.0965 98.876 14.0031 104.351 0.350586 104.351V97.5862C12.2259 97.5862 23.6148 92.8243 32.0119 84.3479C40.409 75.8716 45.1264 64.3753 45.1264 52.3879C45.1264 40.4006 40.409 28.9042 32.0119 20.4279C23.6148 11.9516 12.2259 7.18966 0.350586 7.18966V0.425293Z" fill="#0D6EFD"/>
<path d="M0.350586 104.351C14.0839 104.351 27.2548 98.8583 36.9657 89.0818C46.6766 79.3054 52.1322 66.0458 52.1322 52.2198C52.1322 52.2106 52.1322 52.2007 52.1322 52.1915V52.1582C52.1322 52.1582 52.1322 52.1582 52.1322 52.1545C52.1322 52.1507 52.1322 52.1372 52.1322 52.1285C52.1322 52.1199 52.1322 52.123 52.1322 52.1218V52.094C52.1322 52.094 52.1322 52.0909 52.1322 52.0891C52.1322 52.0872 52.1322 52.0718 52.1322 52.0631C52.1322 52.0545 52.1322 52.0631 52.1322 52.0582C52.1322 52.0533 52.1322 52.0391 52.1322 52.0292C52.1322 52.0193 52.1322 52.0255 52.1322 52.0237C52.1322 52.0218 52.1322 52.007 52.1322 51.9984C52.1322 51.9897 52.1322 51.9947 52.1322 51.9928C52.1322 51.991 52.1322 51.9743 52.1322 51.9651V51.9577C52.1322 51.9496 52.1322 51.9422 52.1322 51.9342V51.9287C52.1322 51.9192 52.1322 51.9099 52.1322 51.9009V51.8941C52.1322 51.8849 52.1322 51.8756 52.1322 51.8663C52.1322 51.8571 52.1322 51.8472 52.1322 51.8373C52.1322 51.8275 52.1322 51.8337 52.1322 51.8306C52.1322 51.8112 52.1322 51.7921 52.1322 51.7732C52.1322 51.7732 52.1322 51.7683 52.1322 51.7664C52.1322 51.7646 52.1322 51.7473 52.1322 51.7374C52.1322 51.7374 52.1322 51.7275 52.1322 51.7374C52.1322 51.7374 52.1322 51.7195 52.1322 51.7109C52.1322 51.7022 52.1322 51.7059 52.1322 51.7041V51.6424C52.1322 51.6325 52.1322 51.6233 52.1322 51.6134V51.5449C52.1322 51.5357 52.1322 51.5258 52.1322 51.5159V51.4499V51.4154C52.1322 51.3956 52.1322 51.3753 52.1322 51.3537V51.0575C52.1322 51.0378 52.1322 51.0174 52.1322 50.9959V50.986C52.1322 50.9656 52.1322 50.9453 52.1322 50.9243V50.8626C52.1322 50.8416 52.1322 50.82 52.1322 50.8009V50.7392V50.7059V50.6442V50.5825V50.5208C52.1285 50.4028 52.1244 50.2849 52.1199 50.1673C52.0738 48.9775 51.9886 47.7985 51.8644 46.6304L51.8577 46.5688L51.8509 46.5071V46.504L51.8479 46.4744V46.4472V46.4207L51.8448 46.3917V46.3646V46.359L51.8417 46.3312V46.3251V46.3004V46.2973L51.8387 46.2695V46.2628V46.2375L51.8356 46.2103V46.2023V46.1789V46.1727V46.1486V46.1394V46.1165V46.1061V46.0882V46.0764V46.0542V46.0425V46.0265V46.0148V45.9919V45.9796V45.966V45.9524V45.9302V45.9173V45.9031V45.8852V45.8685V45.8531V45.8432L51.8325 45.8161V45.8068V45.7908V45.7816L51.8289 45.7538V45.7451V45.7285V45.7223L51.8252 45.6902V45.6841V45.6662L51.8203 45.6286L51.8129 45.5669C51.7516 45.069 51.6806 44.5767 51.6033 44.0862L44.8448 45.1251C45.209 47.4722 45.3918 49.8443 45.3914 52.2198C45.3779 64.2418 40.6283 75.7675 32.1844 84.2683C23.7405 92.7691 12.292 97.5508 0.350586 97.5643V104.351Z" fill="#E6F0FF"/>
<path d="M0.350586 0.425293C14.0031 0.425293 27.0965 5.89991 36.7503 15.6448C46.4041 25.3897 51.8276 38.6066 51.8276 52.3879C51.8276 52.3972 51.8276 52.407 51.8276 52.4162V52.4494C51.8276 52.4494 51.8276 52.4494 51.8276 52.4531C51.8276 52.4568 51.8276 52.4703 51.8276 52.4789C51.8276 52.4876 51.8276 52.4845 51.8276 52.4857V52.5134C51.8276 52.5134 51.8276 52.5165 51.8276 52.5183C51.8276 52.5201 51.8276 52.5355 51.8276 52.5441C51.8276 52.5527 51.8276 52.5441 51.8276 52.549C51.8276 52.554 51.8276 52.5681 51.8276 52.5779C51.8276 52.5878 51.8276 52.5816 51.8276 52.5835C51.8276 52.5853 51.8276 52.6001 51.8276 52.6087C51.8276 52.6173 51.8276 52.6124 51.8276 52.6142C51.8276 52.6161 51.8276 52.6327 51.8276 52.6419V52.6493C51.8276 52.6573 51.8276 52.6647 51.8276 52.6726V52.6782C51.8276 52.6876 51.8276 52.6968 51.8276 52.7059V52.7126C51.8276 52.7218 51.8276 52.7311 51.8276 52.7403C51.8276 52.7495 51.8276 52.7594 51.8276 52.7692C51.8276 52.779 51.8276 52.7729 51.8276 52.776C51.8276 52.7952 51.8276 52.8143 51.8276 52.8332C51.8276 52.8332 51.8276 52.8381 51.8276 52.8399C51.8276 52.8418 51.8276 52.859 51.8276 52.8688C51.8276 52.8688 51.8276 52.8787 51.8276 52.8688C51.8276 52.8688 51.8276 52.8867 51.8276 52.8953C51.8276 52.9039 51.8276 52.9002 51.8276 52.902V52.9635C51.8276 52.9734 51.8276 52.9826 51.8276 52.9924V53.0607C51.8276 53.0699 51.8276 53.0797 51.8276 53.0896V53.1554V53.1898C51.8276 53.2095 51.8276 53.2298 51.8276 53.2513V53.5465C51.8276 53.5662 51.8276 53.5865 51.8276 53.608V53.6178C51.8276 53.6381 51.8276 53.6584 51.8276 53.6793V53.7408C51.8276 53.7617 51.8276 53.7832 51.8276 53.8023V53.8638V53.897V53.9585V54.02V54.0815C51.8239 54.1991 51.8199 54.3166 51.8154 54.4338C51.7695 55.6199 51.6848 56.795 51.5614 57.9593L51.5547 58.0208L51.548 58.0823V58.0854L51.5449 58.1149V58.142V58.1684L51.5419 58.1973V58.2243V58.2299L51.5388 58.2576V58.2637V58.2883V58.2914L51.5358 58.319V58.3258V58.351L51.5328 58.3781V58.3861V58.4095V58.4156V58.4396V58.4488V58.4716V58.482V58.4998V58.5115V58.5337V58.5454V58.5613V58.573V58.5958V58.6081V58.6216V58.6351V58.6573V58.6702V58.6843V58.7022V58.7188V58.7341V58.744L51.5297 58.771V58.7803V58.7962V58.8055L51.5261 58.8331V58.8418V58.8584V58.8645L51.5224 58.8965V58.9026V58.9205L51.5175 58.958L51.5102 59.0195C51.4493 59.5157 51.3786 60.0065 51.3019 60.4953L44.583 59.4598C44.9452 57.1202 45.1269 54.7559 45.1264 52.3879C45.1131 40.4048 40.3913 28.9162 31.9971 20.4428C23.6029 11.9695 12.2218 7.20317 0.350586 7.18966V0.425293Z" fill="#81B4FE"/>
</g>
<defs>
<clipPath id="clip0_170_1334">
<rect width="51.477" height="103.925" fill="white" transform="translate(0.350586 0.425293)"/>
</clipPath>
</defs>
</svg>
